<svg width="342" height="100" viewBox="0 0 342 100" fill="none" xmlns="http://www.w3.org/2000/svg">
<ellipse cx="234.5" cy="28" rx="13.5" ry="14" fill="#900710"/>
<path d="M246 91.6668C237.944 91.6668 231.069 88.8196 225.375 83.1252C219.681 77.4307 216.833 70.5557 216.833 62.5002V37.5002C216.833 29.4446 219.681 22.5696 225.375 16.8752C231.069 11.1807 237.944 8.3335 246 8.3335C254.056 8.3335 260.931 11.1807 266.625 16.8752C272.319 22.5696 275.167 29.4446 275.167 37.5002V62.5002C275.167 70.5557 272.319 77.4307 266.625 83.1252C260.931 88.8196 254.056 91.6668 246 91.6668ZM250.167 37.5002H266.833C266.833 32.5002 265.254 28.0904 262.094 24.271C258.934 20.4516 254.958 18.0557 250.167 17.0835V37.5002ZM225.167 37.5002H241.833V17.0835C237.042 18.0557 233.066 20.4516 229.906 24.271C226.747 28.0904 225.167 32.5002 225.167 37.5002ZM246 83.3335C251.764 83.3335 256.677 81.3022 260.74 77.2397C264.802 73.1772 266.833 68.2641 266.833 62.5002V45.8335H225.167V62.5002C225.167 68.2641 227.198 73.1772 231.26 77.2397C235.323 81.3022 240.236 83.3335 246 83.3335Z" fill="white"/>
<path d="M166.333 51.6668H156.333V48.3335H166.333V38.3335H169.667V48.3335H179.667V51.6668H169.667V61.6668H166.333V51.6668Z" fill="white"/>
<rect y="20" width="118" height="64" rx="10" fill="#D9D9D9"/>
<path d="M56.5185 48.277H53.1946C53.0668 47.5668 52.8288 46.9418 52.4808 46.402C52.1328 45.8622 51.7067 45.4041 51.2024 45.0277C50.6982 44.6513 50.1335 44.3672 49.5085 44.1754C48.8906 43.9837 48.2337 43.8878 47.5376 43.8878C46.2805 43.8878 45.1548 44.2038 44.1605 44.8359C43.1733 45.468 42.392 46.3949 41.8168 47.6165C41.2486 48.8381 40.9645 50.3295 40.9645 52.0909C40.9645 53.8665 41.2486 55.3651 41.8168 56.5866C42.392 57.8082 43.1768 58.7315 44.1712 59.3565C45.1655 59.9815 46.2841 60.294 47.527 60.294C48.2159 60.294 48.8693 60.2017 49.4872 60.017C50.1122 59.8253 50.6768 59.5447 51.1811 59.1754C51.6854 58.8061 52.1115 58.3551 52.4595 57.8224C52.8146 57.2827 53.0597 56.6648 53.1946 55.9688L56.5185 55.9794C56.3409 57.0518 55.9964 58.0391 55.4851 58.9411C54.9808 59.8359 54.331 60.6101 53.5355 61.2635C52.7472 61.9098 51.8452 62.4105 50.8295 62.7656C49.8139 63.1207 48.706 63.2983 47.5057 63.2983C45.6165 63.2983 43.9332 62.8509 42.456 61.956C40.9787 61.054 39.8139 59.7649 38.9616 58.0888C38.1165 56.4126 37.6939 54.4134 37.6939 52.0909C37.6939 49.7614 38.12 47.7621 38.9723 46.093C39.8246 44.4169 40.9893 43.1314 42.4666 42.2365C43.9439 41.3345 45.6236 40.8835 47.5057 40.8835C48.6634 40.8835 49.7429 41.0504 50.7443 41.3842C51.7528 41.7109 52.6584 42.1939 53.4609 42.8331C54.2635 43.4652 54.9276 44.2393 55.4531 45.1555C55.9787 46.0646 56.3338 47.1051 56.5185 48.277ZM67.8404 46.6364V49.1932H58.9022V46.6364H67.8404ZM61.2992 42.7159H64.4846V58.1953C64.4846 58.8132 64.5769 59.2784 64.7615 59.5909C64.9462 59.8963 65.1841 60.1058 65.4753 60.2195C65.7736 60.326 66.0968 60.3793 66.4448 60.3793C66.7005 60.3793 66.9242 60.3615 67.1159 60.326C67.3077 60.2905 67.4569 60.2621 67.5634 60.2408L68.1387 62.8722C67.954 62.9432 67.6912 63.0142 67.3503 63.0852C67.0094 63.1634 66.5833 63.206 66.0719 63.2131C65.2338 63.2273 64.4526 63.0781 63.7282 62.7656C63.0037 62.4531 62.4178 61.9702 61.9703 61.3168C61.5229 60.6634 61.2992 59.843 61.2992 58.8558V42.7159ZM71.364 63V46.6364H74.4428V49.2358H74.6133C74.9116 48.3551 75.4371 47.6626 76.19 47.1584C76.9499 46.647 77.8093 46.3913 78.7681 46.3913C78.967 46.3913 79.2013 46.3984 79.4712 46.4126C79.7482 46.4268 79.9648 46.4446 80.1211 46.4659V49.5128C79.9933 49.4773 79.766 49.4382 79.4393 49.3956C79.1126 49.3459 78.7859 49.321 78.4592 49.321C77.7063 49.321 77.0352 49.4808 76.4457 49.8004C75.8633 50.1129 75.4016 50.5497 75.0607 51.1108C74.7198 51.6648 74.5494 52.2969 74.5494 53.0071V63H71.364ZM86.063 41.1818V63H82.8777V41.1818H86.063Z" fill="#900710"/>
<path d="M315 46V33.825L309.4 39.425L308 38L316 30L324 38L322.6 39.425L317 33.825V46H315Z" fill="white"/>
<path d="M297.825 53L303.425 58.6L302 60L294 52L302 44L303.425 45.4L297.825 51H310V53H297.825Z" fill="white"/>
<path d="M334.175 53H322V51H334.175L328.575 45.4L330 44L338 52L330 60L328.575 58.6L334.175 53Z" fill="white"/>
<path d="M315 58V70.175L309.4 64.575L308 66L316 74L324 66L322.6 64.575L317 70.175V58H315Z" fill="white"/>
</svg>
