<svg width="60" height="84" viewBox="0 0 60 84" fill="none" xmlns="http://www.w3.org/2000/svg">
<ellipse cx="18.5" cy="20" rx="13.5" ry="14" fill="#900710"/>
<path d="M30 83.6668C21.9445 83.6668 15.0695 80.8196 9.37504 75.1252C3.6806 69.4307 0.833374 62.5557 0.833374 54.5002V29.5002C0.833374 21.4446 3.6806 14.5696 9.37504 8.87516C15.0695 3.18072 21.9445 0.333496 30 0.333496C38.0556 0.333496 44.9306 3.18072 50.625 8.87516C56.3195 14.5696 59.1667 21.4446 59.1667 29.5002V54.5002C59.1667 62.5557 56.3195 69.4307 50.625 75.1252C44.9306 80.8196 38.0556 83.6668 30 83.6668ZM34.1667 29.5002H50.8334C50.8334 24.5002 49.2535 20.0904 46.0938 16.271C42.9341 12.4516 38.9584 10.0557 34.1667 9.0835V29.5002ZM9.16671 29.5002H25.8334V9.0835C21.0417 10.0557 17.066 12.4516 13.9063 16.271C10.7466 20.0904 9.16671 24.5002 9.16671 29.5002ZM30 75.3335C35.7639 75.3335 40.6771 73.3022 44.7396 69.2397C48.8021 65.1772 50.8334 60.2641 50.8334 54.5002V37.8335H9.16671V54.5002C9.16671 60.2641 11.198 65.1772 15.2605 69.2397C19.323 73.3022 24.2362 75.3335 30 75.3335Z" fill="white"/>
</svg>
